<mxfile host="app.diagrams.net" modified="2020-11-30T06:50:25.738Z" agent="5.0 (Windows)" etag="KtoWPdyvGsarfnNQTG0Y" version="13.10.0" type="github">
  <diagram id="Gm3Mc-cJsk7zvb-vtSqe" name="Page-1">
    <mxGraphModel dx="1303" dy="1178" grid="1" gridSize="10" guides="1" tooltips="1" connect="1" arrows="1" fold="1" page="1" pageScale="1" pageWidth="850" pageHeight="1100" math="0" shadow="0">
      <root>
        <mxCell id="0" />
        <mxCell id="1" parent="0" />
        <mxCell id="Y1eTbd9v6Z4lm8RlC_wt-10" value="" style="edgeStyle=orthogonalEdgeStyle;rounded=0;orthogonalLoop=1;jettySize=auto;html=1;" edge="1" parent="1" source="Y1eTbd9v6Z4lm8RlC_wt-2" target="Y1eTbd9v6Z4lm8RlC_wt-3">
          <mxGeometry relative="1" as="geometry" />
        </mxCell>
        <mxCell id="Y1eTbd9v6Z4lm8RlC_wt-2" value="Mulai" style="rounded=1;whiteSpace=wrap;html=1;" vertex="1" parent="1">
          <mxGeometry x="363.75" y="60" width="100" height="40" as="geometry" />
        </mxCell>
        <mxCell id="Y1eTbd9v6Z4lm8RlC_wt-34" style="edgeStyle=orthogonalEdgeStyle;rounded=0;orthogonalLoop=1;jettySize=auto;html=1;exitX=0.5;exitY=1;exitDx=0;exitDy=0;entryX=0.5;entryY=0;entryDx=0;entryDy=0;" edge="1" parent="1" source="Y1eTbd9v6Z4lm8RlC_wt-3" target="Y1eTbd9v6Z4lm8RlC_wt-8">
          <mxGeometry relative="1" as="geometry" />
        </mxCell>
        <mxCell id="Y1eTbd9v6Z4lm8RlC_wt-3" value="&lt;div&gt;Form tindak lanjut&lt;/div&gt;&lt;div&gt;rekomendasi &lt;br&gt;&lt;/div&gt;&lt;div&gt;laporan&lt;br&gt;&lt;/div&gt;" style="shape=parallelogram;perimeter=parallelogramPerimeter;whiteSpace=wrap;html=1;fixedSize=1;" vertex="1" parent="1">
          <mxGeometry x="341.25" y="130" width="145" height="80" as="geometry" />
        </mxCell>
        <mxCell id="Y1eTbd9v6Z4lm8RlC_wt-41" style="edgeStyle=orthogonalEdgeStyle;rounded=0;orthogonalLoop=1;jettySize=auto;html=1;exitX=0.5;exitY=1;exitDx=0;exitDy=0;" edge="1" parent="1" source="Y1eTbd9v6Z4lm8RlC_wt-7" target="Y1eTbd9v6Z4lm8RlC_wt-18">
          <mxGeometry relative="1" as="geometry" />
        </mxCell>
        <mxCell id="Y1eTbd9v6Z4lm8RlC_wt-7" value="Membuat gambar desain part baru" style="rounded=0;whiteSpace=wrap;html=1;" vertex="1" parent="1">
          <mxGeometry x="520" y="360" width="120" height="60" as="geometry" />
        </mxCell>
        <mxCell id="Y1eTbd9v6Z4lm8RlC_wt-35" style="edgeStyle=orthogonalEdgeStyle;rounded=0;orthogonalLoop=1;jettySize=auto;html=1;exitX=0.5;exitY=1;exitDx=0;exitDy=0;entryX=0.5;entryY=0;entryDx=0;entryDy=0;" edge="1" parent="1" source="Y1eTbd9v6Z4lm8RlC_wt-8" target="Y1eTbd9v6Z4lm8RlC_wt-11">
          <mxGeometry relative="1" as="geometry" />
        </mxCell>
        <mxCell id="Y1eTbd9v6Z4lm8RlC_wt-8" value="&lt;div&gt;Analisa masalah&lt;/div&gt;kebutuhan part" style="rounded=0;whiteSpace=wrap;html=1;" vertex="1" parent="1">
          <mxGeometry x="353.12" y="240" width="120" height="60" as="geometry" />
        </mxCell>
        <mxCell id="Y1eTbd9v6Z4lm8RlC_wt-36" style="edgeStyle=orthogonalEdgeStyle;rounded=0;orthogonalLoop=1;jettySize=auto;html=1;exitX=0;exitY=0.5;exitDx=0;exitDy=0;entryX=1;entryY=0.5;entryDx=0;entryDy=0;" edge="1" parent="1" source="Y1eTbd9v6Z4lm8RlC_wt-11" target="Y1eTbd9v6Z4lm8RlC_wt-13">
          <mxGeometry relative="1" as="geometry" />
        </mxCell>
        <mxCell id="Y1eTbd9v6Z4lm8RlC_wt-40" style="edgeStyle=orthogonalEdgeStyle;rounded=0;orthogonalLoop=1;jettySize=auto;html=1;exitX=1;exitY=0.5;exitDx=0;exitDy=0;entryX=0;entryY=0.5;entryDx=0;entryDy=0;" edge="1" parent="1" source="Y1eTbd9v6Z4lm8RlC_wt-11" target="Y1eTbd9v6Z4lm8RlC_wt-7">
          <mxGeometry relative="1" as="geometry" />
        </mxCell>
        <mxCell id="Y1eTbd9v6Z4lm8RlC_wt-11" value="Apa&lt;div&gt;part tidak ada&lt;br&gt;&lt;/div&gt;&lt;div&gt;di pasaran?&lt;br&gt;&lt;/div&gt;" style="rhombus;whiteSpace=wrap;html=1;" vertex="1" parent="1">
          <mxGeometry x="340" y="320" width="146.25" height="140" as="geometry" />
        </mxCell>
        <mxCell id="Y1eTbd9v6Z4lm8RlC_wt-39" style="edgeStyle=orthogonalEdgeStyle;rounded=0;orthogonalLoop=1;jettySize=auto;html=1;exitX=0.5;exitY=1;exitDx=0;exitDy=0;entryX=0.5;entryY=0;entryDx=0;entryDy=0;" edge="1" parent="1" source="Y1eTbd9v6Z4lm8RlC_wt-13" target="Y1eTbd9v6Z4lm8RlC_wt-17">
          <mxGeometry relative="1" as="geometry" />
        </mxCell>
        <mxCell id="Y1eTbd9v6Z4lm8RlC_wt-13" value="&lt;div&gt;Mengajukan change&lt;/div&gt;&lt;div&gt;control&lt;br&gt;&lt;/div&gt;" style="rounded=0;whiteSpace=wrap;html=1;" vertex="1" parent="1">
          <mxGeometry x="190" y="360" width="120" height="60" as="geometry" />
        </mxCell>
        <mxCell id="Y1eTbd9v6Z4lm8RlC_wt-38" style="edgeStyle=orthogonalEdgeStyle;rounded=0;orthogonalLoop=1;jettySize=auto;html=1;exitX=1;exitY=0.5;exitDx=0;exitDy=0;entryX=0;entryY=0.5;entryDx=0;entryDy=0;" edge="1" parent="1" source="Y1eTbd9v6Z4lm8RlC_wt-14" target="Y1eTbd9v6Z4lm8RlC_wt-13">
          <mxGeometry relative="1" as="geometry" />
        </mxCell>
        <mxCell id="Y1eTbd9v6Z4lm8RlC_wt-14" value="&lt;div&gt;Dokumen&lt;/div&gt;&lt;div&gt;spesifikasi barang&lt;br&gt;&lt;/div&gt;" style="shape=parallelogram;perimeter=parallelogramPerimeter;whiteSpace=wrap;html=1;fixedSize=1;" vertex="1" parent="1">
          <mxGeometry x="20" y="360" width="140" height="60" as="geometry" />
        </mxCell>
        <mxCell id="Y1eTbd9v6Z4lm8RlC_wt-17" value="Selesai" style="rounded=1;whiteSpace=wrap;html=1;" vertex="1" parent="1">
          <mxGeometry x="200" y="460" width="100" height="40" as="geometry" />
        </mxCell>
        <mxCell id="Y1eTbd9v6Z4lm8RlC_wt-42" style="edgeStyle=orthogonalEdgeStyle;rounded=0;orthogonalLoop=1;jettySize=auto;html=1;exitX=0.5;exitY=1;exitDx=0;exitDy=0;entryX=0.5;entryY=0;entryDx=0;entryDy=0;" edge="1" parent="1" source="Y1eTbd9v6Z4lm8RlC_wt-18" target="Y1eTbd9v6Z4lm8RlC_wt-19">
          <mxGeometry relative="1" as="geometry" />
        </mxCell>
        <mxCell id="Y1eTbd9v6Z4lm8RlC_wt-18" value="&lt;div&gt;Tentukan jumlah&lt;/div&gt;&lt;div&gt;kebutuhan part&lt;br&gt;&lt;/div&gt;" style="rounded=0;whiteSpace=wrap;html=1;" vertex="1" parent="1">
          <mxGeometry x="520" y="460" width="120" height="60" as="geometry" />
        </mxCell>
        <mxCell id="Y1eTbd9v6Z4lm8RlC_wt-43" style="edgeStyle=orthogonalEdgeStyle;rounded=0;orthogonalLoop=1;jettySize=auto;html=1;exitX=0;exitY=0.5;exitDx=0;exitDy=0;entryX=1;entryY=0.5;entryDx=0;entryDy=0;" edge="1" parent="1" source="Y1eTbd9v6Z4lm8RlC_wt-19" target="Y1eTbd9v6Z4lm8RlC_wt-20">
          <mxGeometry relative="1" as="geometry" />
        </mxCell>
        <mxCell id="Y1eTbd9v6Z4lm8RlC_wt-45" style="edgeStyle=orthogonalEdgeStyle;rounded=0;orthogonalLoop=1;jettySize=auto;html=1;exitX=1;exitY=0.5;exitDx=0;exitDy=0;entryX=0;entryY=0.5;entryDx=0;entryDy=0;" edge="1" parent="1" source="Y1eTbd9v6Z4lm8RlC_wt-19" target="Y1eTbd9v6Z4lm8RlC_wt-22">
          <mxGeometry relative="1" as="geometry" />
        </mxCell>
        <mxCell id="Y1eTbd9v6Z4lm8RlC_wt-19" value="&lt;div&gt;Apa ketersediaan &lt;br&gt;&lt;/div&gt;&lt;div&gt;material ada ?&lt;br&gt;&lt;/div&gt;" style="rhombus;whiteSpace=wrap;html=1;" vertex="1" parent="1">
          <mxGeometry x="511.57" y="560" width="136.87" height="140" as="geometry" />
        </mxCell>
        <mxCell id="Y1eTbd9v6Z4lm8RlC_wt-44" style="edgeStyle=orthogonalEdgeStyle;rounded=0;orthogonalLoop=1;jettySize=auto;html=1;exitX=0.5;exitY=0;exitDx=0;exitDy=0;" edge="1" parent="1" source="Y1eTbd9v6Z4lm8RlC_wt-20">
          <mxGeometry relative="1" as="geometry">
            <mxPoint x="570" y="540" as="targetPoint" />
            <Array as="points">
              <mxPoint x="413" y="540" />
              <mxPoint x="570" y="540" />
            </Array>
          </mxGeometry>
        </mxCell>
        <mxCell id="Y1eTbd9v6Z4lm8RlC_wt-20" value="&lt;div&gt;Mengajukan&lt;/div&gt;&lt;div&gt;pengadaan material&lt;br&gt;&lt;/div&gt;" style="rounded=0;whiteSpace=wrap;html=1;" vertex="1" parent="1">
          <mxGeometry x="353.12" y="600" width="120" height="60" as="geometry" />
        </mxCell>
        <mxCell id="Y1eTbd9v6Z4lm8RlC_wt-46" style="edgeStyle=orthogonalEdgeStyle;rounded=0;orthogonalLoop=1;jettySize=auto;html=1;exitX=0.5;exitY=1;exitDx=0;exitDy=0;entryX=0.5;entryY=0;entryDx=0;entryDy=0;" edge="1" parent="1" source="Y1eTbd9v6Z4lm8RlC_wt-22" target="Y1eTbd9v6Z4lm8RlC_wt-24">
          <mxGeometry relative="1" as="geometry" />
        </mxCell>
        <mxCell id="Y1eTbd9v6Z4lm8RlC_wt-22" value="&lt;div&gt;Membuat form order&lt;/div&gt;&lt;div&gt;pekerjaan ke workshop&lt;br&gt;&lt;/div&gt;" style="rounded=0;whiteSpace=wrap;html=1;" vertex="1" parent="1">
          <mxGeometry x="690" y="600" width="120" height="60" as="geometry" />
        </mxCell>
        <mxCell id="Y1eTbd9v6Z4lm8RlC_wt-49" style="edgeStyle=orthogonalEdgeStyle;rounded=0;orthogonalLoop=1;jettySize=auto;html=1;exitX=0;exitY=0.5;exitDx=0;exitDy=0;entryX=1;entryY=0.5;entryDx=0;entryDy=0;" edge="1" parent="1" source="Y1eTbd9v6Z4lm8RlC_wt-23" target="Y1eTbd9v6Z4lm8RlC_wt-22">
          <mxGeometry relative="1" as="geometry" />
        </mxCell>
        <mxCell id="Y1eTbd9v6Z4lm8RlC_wt-23" value="&lt;div&gt;Dokumen&lt;/div&gt;&lt;div&gt;drawing&lt;/div&gt;" style="shape=parallelogram;perimeter=parallelogramPerimeter;whiteSpace=wrap;html=1;fixedSize=1;" vertex="1" parent="1">
          <mxGeometry x="850" y="600" width="120" height="60" as="geometry" />
        </mxCell>
        <mxCell id="Y1eTbd9v6Z4lm8RlC_wt-47" style="edgeStyle=orthogonalEdgeStyle;rounded=0;orthogonalLoop=1;jettySize=auto;html=1;exitX=0.5;exitY=1;exitDx=0;exitDy=0;entryX=0.5;entryY=0;entryDx=0;entryDy=0;" edge="1" parent="1" source="Y1eTbd9v6Z4lm8RlC_wt-24" target="Y1eTbd9v6Z4lm8RlC_wt-27">
          <mxGeometry relative="1" as="geometry" />
        </mxCell>
        <mxCell id="Y1eTbd9v6Z4lm8RlC_wt-24" value="&lt;div&gt;Pengajuan acc ke &lt;br&gt;&lt;/div&gt;&lt;div&gt;atasan&lt;br&gt;&lt;/div&gt;" style="rounded=0;whiteSpace=wrap;html=1;" vertex="1" parent="1">
          <mxGeometry x="690" y="710" width="120" height="60" as="geometry" />
        </mxCell>
        <mxCell id="Y1eTbd9v6Z4lm8RlC_wt-26" value="Selesai" style="rounded=1;whiteSpace=wrap;html=1;" vertex="1" parent="1">
          <mxGeometry x="700" y="980" width="100" height="40" as="geometry" />
        </mxCell>
        <mxCell id="Y1eTbd9v6Z4lm8RlC_wt-48" style="edgeStyle=orthogonalEdgeStyle;rounded=0;orthogonalLoop=1;jettySize=auto;html=1;exitX=0.5;exitY=1;exitDx=0;exitDy=0;entryX=0.5;entryY=0;entryDx=0;entryDy=0;" edge="1" parent="1" source="Y1eTbd9v6Z4lm8RlC_wt-27" target="Y1eTbd9v6Z4lm8RlC_wt-26">
          <mxGeometry relative="1" as="geometry" />
        </mxCell>
        <mxCell id="Y1eTbd9v6Z4lm8RlC_wt-50" style="edgeStyle=orthogonalEdgeStyle;rounded=0;orthogonalLoop=1;jettySize=auto;html=1;exitX=1;exitY=0.5;exitDx=0;exitDy=0;entryX=0;entryY=0.5;entryDx=0;entryDy=0;" edge="1" parent="1" source="Y1eTbd9v6Z4lm8RlC_wt-27" target="Y1eTbd9v6Z4lm8RlC_wt-28">
          <mxGeometry relative="1" as="geometry" />
        </mxCell>
        <mxCell id="Y1eTbd9v6Z4lm8RlC_wt-27" value="&lt;div&gt;Pengajuan &lt;br&gt;&lt;/div&gt;&lt;div&gt;di acc ?&lt;br&gt;&lt;/div&gt;" style="rhombus;whiteSpace=wrap;html=1;" vertex="1" parent="1">
          <mxGeometry x="680" y="800" width="140" height="140" as="geometry" />
        </mxCell>
        <mxCell id="Y1eTbd9v6Z4lm8RlC_wt-51" style="edgeStyle=orthogonalEdgeStyle;rounded=0;orthogonalLoop=1;jettySize=auto;html=1;exitX=0.5;exitY=0;exitDx=0;exitDy=0;" edge="1" parent="1" source="Y1eTbd9v6Z4lm8RlC_wt-28">
          <mxGeometry relative="1" as="geometry">
            <mxPoint x="760" y="680" as="targetPoint" />
            <Array as="points">
              <mxPoint x="910" y="680" />
            </Array>
          </mxGeometry>
        </mxCell>
        <mxCell id="Y1eTbd9v6Z4lm8RlC_wt-28" value="&lt;div&gt;Revisi dokumen&lt;/div&gt;&lt;div&gt;drawing&lt;/div&gt;" style="rounded=0;whiteSpace=wrap;html=1;" vertex="1" parent="1">
          <mxGeometry x="850" y="840" width="120" height="60" as="geometry" />
        </mxCell>
        <mxCell id="Y1eTbd9v6Z4lm8RlC_wt-52" value="Tidak" style="text;html=1;strokeColor=none;fillColor=none;align=center;verticalAlign=middle;whiteSpace=wrap;rounded=0;" vertex="1" parent="1">
          <mxGeometry x="313.12" y="350" width="40" height="20" as="geometry" />
        </mxCell>
        <mxCell id="Y1eTbd9v6Z4lm8RlC_wt-53" value="Ya" style="text;html=1;strokeColor=none;fillColor=none;align=center;verticalAlign=middle;whiteSpace=wrap;rounded=0;" vertex="1" parent="1">
          <mxGeometry x="473.12" y="350" width="40" height="20" as="geometry" />
        </mxCell>
        <mxCell id="Y1eTbd9v6Z4lm8RlC_wt-54" value="Tidak" style="text;html=1;strokeColor=none;fillColor=none;align=center;verticalAlign=middle;whiteSpace=wrap;rounded=0;" vertex="1" parent="1">
          <mxGeometry x="480" y="600" width="40" height="20" as="geometry" />
        </mxCell>
        <mxCell id="Y1eTbd9v6Z4lm8RlC_wt-55" value="Tidak" style="text;html=1;strokeColor=none;fillColor=none;align=center;verticalAlign=middle;whiteSpace=wrap;rounded=0;" vertex="1" parent="1">
          <mxGeometry x="810" y="830" width="40" height="20" as="geometry" />
        </mxCell>
        <mxCell id="Y1eTbd9v6Z4lm8RlC_wt-56" value="Ya" style="text;html=1;strokeColor=none;fillColor=none;align=center;verticalAlign=middle;whiteSpace=wrap;rounded=0;" vertex="1" parent="1">
          <mxGeometry x="640" y="600" width="40" height="20" as="geometry" />
        </mxCell>
        <mxCell id="Y1eTbd9v6Z4lm8RlC_wt-57" value="Ya" style="text;html=1;strokeColor=none;fillColor=none;align=center;verticalAlign=middle;whiteSpace=wrap;rounded=0;" vertex="1" parent="1">
          <mxGeometry x="760" y="940" width="40" height="20" as="geometry" />
        </mxCell>
      </root>
    </mxGraphModel>
  </diagram>
</mxfile>
